<svg xmlns="http://www.w3.org/2000/svg" viewBox="0 0 96 96">
  <path d="M45 31c-13-10-21-8-25-3 7 5 15 7 25 5m6-2c9-12 20-12 26-8-5 8-13 11-26 10" fill="#9ABB7C" stroke="#607A55" stroke-width="3" stroke-linejoin="round"/>
  <path d="M48 30c-9-5-28-3-30 16-2 20 16 39 30 43 16-5 34-24 30-44-3-18-21-19-30-15Z" fill="#E78B81" stroke="#A85F5A" stroke-width="4" stroke-linejoin="round"/>
  <path d="M34 50l2 3m17-9 2 3m11 8 2 3M43 62l2 3m15 5 2 3m-23 8 2 2" stroke="#FFF0C7" stroke-width="3" stroke-linecap="round"/>
  <path d="M36 30c5 6 9 7 12 8 4-1 8-5 11-10" fill="none" stroke="#607A55" stroke-width="3" stroke-linecap="round"/>
</svg>
